<svg xmlns="http://www.w3.org/2000/svg" viewBox="0 0 32 32"><style>.st1{fill:#52bd94}</style><g id="Segment"><path class="st1" d="M29.9 14H14.1c-.6 0-1.1-.5-1.1-1.1V11c0-.6.5-1.1 1.1-1.1H30c.6 0 1.1.5 1.1 1.1v1.9c-.1.6-.6 1.1-1.2 1.1zm-12 8H2.1c-.6 0-1.1-.5-1.1-1.1V19c0-.5.5-1 1.1-1H18c.6 0 1.1.5 1.1 1.1V21c-.1.5-.6 1-1.2 1z"/><circle class="st1" cx="7" cy="27" r="2"/><circle class="st1" cx="25" cy="5" r="2"/><path class="st1" d="M16 28c-1.1 0-2.2-.2-3.2-.5-.5-.1-1 .1-1.2.6l-.7 1.9c-.2.5.1 1.1.7 1.3 1.4.5 2.9.7 4.4.7 6.5 0 12.1-3.9 14.6-9.5.2-.5 0-1.2-.6-1.4l-1.9-.7c-.5-.2-1 0-1.2.5C25 25.1 20.9 28 16 28zm0-24c1.1 0 2.2.2 3.2.5.5.1 1-.1 1.2-.6l.7-1.9c.2-.5-.1-1.1-.7-1.3C19 .2 17.5 0 16 0 9.5 0 3.9 3.9 1.4 9.5c-.2.5 0 1.2.6 1.4l1.9.7c.5.2 1 0 1.2-.5C7 6.9 11.1 4 16 4z"/></g></svg>