<svg width="180" height="37" viewBox="0 0 180 37" fill="none" xmlns="http://www.w3.org/2000/svg">
<g clip-path="url(#clip0_2_306)">
<path d="M14.4984 23.5263C14.0927 24.1995 13.5099 24.7453 12.815 25.1028C12.1202 25.4604 11.3408 25.6156 10.5638 25.5511C7.38743 25.5511 5.79977 22.8984 5.79977 19.1285C5.79977 15.9866 7.04289 12.3543 10.7021 12.3543C13.1181 12.3543 14.5686 13.4715 14.9823 15.8446H20.6438C20.5515 14.1073 19.9121 12.4455 18.819 11.1018C17.7261 9.75824 16.2367 8.8034 14.5686 8.37687C14.4995 8.37687 14.4303 8.37687 14.4303 8.30698C14.3612 8.30698 14.292 8.23708 14.2229 8.23708C14.0007 8.15718 13.7683 8.11011 13.5328 8.09729C12.6487 7.90078 11.7454 7.80699 10.8403 7.81772C3.86652 7.8188 0 12.7059 0 19.3381C0 25.6908 4.28018 30.2285 10.5638 30.2285C15.397 30.2285 18.9179 27.8553 20.2301 23.5263H14.4984Z" fill="white"/>
<path d="M32.9323 15.1483C33.278 9.7031 38.11 8.02783 42.805 8.02783C47.016 8.02783 52.0565 9.00526 52.0565 14.101V25.202C51.9478 26.8223 52.2075 28.4463 52.8158 29.9493H46.9479C46.7367 29.2904 46.5977 28.6099 46.5332 27.9204C45.5876 28.8267 44.4697 29.5293 43.2473 29.9853C42.0248 30.4413 40.7235 30.6412 39.4222 30.573C35.4176 30.573 32.2422 28.5483 32.2422 24.2204C32.2422 19.4031 35.8323 18.2859 39.4222 17.7278C42.9431 17.1697 46.2578 17.3084 46.2578 14.9321C46.2578 12.4193 44.5319 12.0698 42.5295 12.0698C40.3197 12.0698 38.9395 12.9773 38.7321 15.2816H32.9323V15.1483ZM46.3312 19.4762C45.3645 20.3139 43.2931 20.3838 41.498 20.7333C39.703 21.0826 38.1154 21.7106 38.1154 23.8752C38.1154 26.0397 39.7721 26.5978 41.6363 26.5978C46.1238 26.5978 46.3312 22.9676 46.3312 21.7106V19.4762Z" fill="white"/>
<path d="M56.6823 9.14603H62.2056V13.3396H62.2747C62.8468 12.0157 63.7817 10.885 64.9687 10.081C66.1558 9.27691 67.5456 8.8331 68.9741 8.80194C69.3974 8.7977 69.8183 8.86867 70.2172 9.01162V14.6665C69.5363 14.5206 68.8418 14.4503 68.1458 14.4568C63.9347 14.4568 62.4842 17.5288 62.4842 21.2987V29.8858H56.6823V9.14603Z" fill="white"/>
<path d="M72.2855 15.1483C72.6311 9.7031 77.4632 8.02783 82.1581 8.02783C86.3692 8.02783 91.4097 9.00526 91.4097 14.101V25.1321C91.301 26.7524 91.5607 28.3764 92.1689 29.8795H86.3001C86.0892 29.2219 85.95 28.5429 85.8853 27.8547C84.9397 28.7611 83.8218 29.4637 82.5993 29.9197C81.3769 30.3758 80.0756 30.5757 78.7744 30.5074C74.7696 30.5074 71.5944 28.4826 71.5944 24.1547C71.5944 19.3375 75.1843 18.2203 78.7744 17.6623C82.2953 17.1042 85.6099 17.2429 85.6099 14.8665C85.6099 12.3536 83.884 12.0042 81.8816 12.0042C79.6719 12.0042 78.2916 12.9117 78.0843 15.216H72.2845L72.2855 15.1483ZM85.611 19.4762C84.6444 20.3139 82.5729 20.3838 80.7779 20.7333C78.9828 21.0826 77.3951 21.7106 77.3951 23.8752C77.3951 26.0397 79.052 26.5978 80.916 26.5978C85.4036 26.5978 85.611 22.9676 85.611 21.7106V19.4762Z" fill="white"/>
<path d="M107.083 29.8777H100.662L93.4823 8.5874H99.5575L103.976 23.1035H104.045L108.464 8.5874H114.194L107.083 29.8777Z" fill="white"/>
<path d="M123.17 8.79688H117.37V29.8797H123.17V8.79688Z" fill="white"/>
<path d="M123.101 0H117.37V5.79462H123.101V0Z" fill="white"/>
<path d="M29.5497 0.697754H23.2672V29.8795H29.5497V0.697754Z" fill="white"/>
<path d="M140.913 8.02792C139.632 8.02181 138.37 8.3454 137.247 8.96822C136.124 9.59105 135.176 10.4926 134.492 11.5881H134.354V8.65587H128.831V29.9462H134.63V18.7806C134.63 14.4527 135.942 12.7075 139.118 12.7075C141.81 12.7075 142.846 14.4527 142.846 17.9429V29.9484H148.646V16.7548C148.646 11.5183 147.057 8.02792 140.913 8.02792Z" fill="white"/>
<path fill-rule="evenodd" clip-rule="evenodd" d="M157.348 20.7346H172.53C172.945 14.1723 169.492 8.09912 162.312 8.09912C155.891 8.09912 151.541 12.9863 151.541 19.339C151.541 25.9013 155.683 30.5088 162.312 30.5088C162.739 30.5088 163.154 30.4915 163.559 30.4564V25.9448C163.227 26.007 162.881 26.041 162.523 26.041C159.3 26.041 157.507 24.3859 157.348 20.7346ZM170.109 27.2274H169.428V27.9626C169.665 27.7339 169.892 27.489 170.109 27.2274ZM162.178 12.427C165.009 12.427 166.253 14.0324 166.804 16.9647H157.346C157.362 16.3439 157.501 15.7325 157.753 15.1665C158.007 14.6005 158.368 14.0913 158.819 13.6686C159.269 13.246 159.798 12.9185 160.375 12.7053C160.952 12.4922 161.565 12.3975 162.178 12.427Z" fill="white"/>
<path d="M168.737 25.8296V36.9995H173.709V30.8565H179.714V25.8296H168.737Z" fill="#5DD39E"/>
</g>
<defs>
<clipPath id="clip0_2_306">
<rect width="179.714" height="37" fill="white"/>
</clipPath>
</defs>
</svg>
