<svg width="44" height="44" viewBox="0 0 44 44" fill="none" xmlns="http://www.w3.org/2000/svg">
<g clip-path="url(#clip0_20716_2122)">
<path d="M28.613 18.0868C26.9656 17.169 25.1045 16.7039 23.219 16.7388C21.3393 16.7108 19.4863 17.1858 17.852 18.1148C16.8353 18.7022 15.9312 19.4658 15.182 20.3698V5.45983C15.182 5.4031 15.1708 5.34693 15.1491 5.29451C15.1274 5.2421 15.0956 5.19448 15.0555 5.15436C15.0154 5.11425 14.9677 5.08243 14.9153 5.06072C14.8629 5.03901 14.8067 5.02783 14.75 5.02783H9.432C9.37523 5.0277 9.319 5.03879 9.26653 5.06045C9.21405 5.08211 9.16638 5.11393 9.12624 5.15407C9.0861 5.19421 9.05428 5.24189 9.03262 5.29436C9.01095 5.34683 8.99987 5.40307 9 5.45983V43.8428C8.99987 43.8996 9.01095 43.9558 9.03262 44.0083C9.05428 44.0608 9.0861 44.1085 9.12624 44.1486C9.16638 44.1887 9.21405 44.2206 9.26653 44.2422C9.319 44.2639 9.37523 44.275 9.432 44.2748H14.75C14.8067 44.2748 14.8629 44.2637 14.9153 44.2419C14.9677 44.2202 15.0154 44.1884 15.0555 44.1483C15.0956 44.1082 15.1274 44.0606 15.1491 44.0082C15.1708 43.9557 15.182 43.8996 15.182 43.8428V28.7088C15.1624 27.592 15.4336 26.4892 15.969 25.5088C16.4785 24.5858 17.2379 23.825 18.16 23.3138C19.1403 22.7782 20.2431 22.507 21.36 22.5268C22.1756 22.4975 22.9885 22.6371 23.7475 22.9369C24.5066 23.2367 25.1955 23.6902 25.771 24.2688C26.3414 24.8551 26.7872 25.5506 27.0818 26.3137C27.3764 27.0767 27.5135 27.8914 27.485 28.7088V43.8428C27.485 43.8996 27.4962 43.9559 27.518 44.0084C27.5398 44.0609 27.5717 44.1085 27.6119 44.1487C27.6521 44.1888 27.6998 44.2206 27.7524 44.2422C27.8049 44.2639 27.8612 44.275 27.918 44.2748H33.235C33.2918 44.275 33.348 44.2639 33.4005 44.2422C33.4529 44.2206 33.5006 44.1887 33.5408 44.1486C33.5809 44.1085 33.6127 44.0608 33.6344 44.0083C33.656 43.9558 33.6671 43.8996 33.667 43.8428V27.3598C33.7079 25.4285 33.2432 23.5201 32.319 21.8238C31.4487 20.2613 30.1652 18.9684 28.609 18.0868" fill="white"/>
<path d="M36.5544 22.5796C36.5434 22.6244 36.5177 22.6641 36.4814 22.6925C36.4452 22.7209 36.4005 22.7363 36.3544 22.7363C36.3084 22.7363 36.2637 22.7209 36.2274 22.6925C36.1911 22.6641 36.1655 22.6244 36.1544 22.5796C35.9521 21.4656 35.5659 20.3929 35.0114 19.4056C34.1326 17.8376 32.833 16.5464 31.2594 15.6776C30.29 15.1401 29.2397 14.7638 28.1494 14.5636C28.1066 14.5525 28.0687 14.5274 28.0417 14.4924C28.0147 14.4574 28 14.4144 28 14.3701C28 14.3259 28.0147 14.2829 28.0417 14.2479C28.0687 14.2129 28.1066 14.1878 28.1494 14.1766C29.2391 13.9752 30.289 13.5986 31.2584 13.0616C32.8328 12.1926 34.1326 10.9002 35.0104 9.33064C35.5645 8.34331 35.9505 7.27066 36.1524 6.15664C36.1635 6.11194 36.1892 6.07222 36.2254 6.04382C36.2617 6.01543 36.3064 6 36.3524 6C36.3985 6 36.4432 6.01543 36.4794 6.04382C36.5157 6.07222 36.5414 6.11194 36.5524 6.15664C36.7547 7.27072 37.141 8.34337 37.6954 9.33064C38.5725 10.8998 39.8711 12.1922 41.4444 13.0616C42.4154 13.599 43.467 13.9756 44.5584 14.1766C44.6012 14.1878 44.6391 14.2129 44.6662 14.2479C44.6932 14.2829 44.7079 14.3259 44.7079 14.3701C44.7079 14.4144 44.6932 14.4574 44.6662 14.4924C44.6391 14.5274 44.6012 14.5525 44.5584 14.5636C43.4673 14.7638 42.4159 15.1401 41.4454 15.6776C39.8729 16.5468 38.5744 17.838 37.6964 19.4056C37.142 20.3929 36.7567 21.4656 36.5544 22.5796Z" fill="#EA0954"/>
</g>
<defs>
<clipPath id="clip0_20716_2122">
<rect width="44" height="44" fill="white"/>
</clipPath>
</defs>
</svg>
