<?xml version="1.0" encoding="UTF-8"?>
<svg xmlns="http://www.w3.org/2000/svg" version="1.1" viewBox="0 0 1024.89 473.06" fill="white">
  <g>
    <path d="M863.44,117.84c-70.21,0-127.32,57.11-127.32,127.31v227.91h42.8v-132.81c22.49,20.02,52.1,32.21,84.52,32.21,70.2,0,127.31-57.12,127.31-127.32s-57.11-127.31-127.31-127.31ZM863.44,329.67c-46.62,0-84.52-37.91-84.52-84.52s37.9-84.52,84.52-84.52,84.51,37.93,84.51,84.52-37.9,84.52-84.51,84.52Z"/>
    <path d="M580.07,117.84c-70.19,0-127.31,57.11-127.31,127.31s57.12,127.32,127.31,127.32c32.43,0,62.03-12.2,84.53-32.21v32.21h42.79v-127.32c0-70.2-57.11-127.31-127.33-127.31ZM580.07,329.68c-46.6,0-84.51-37.91-84.51-84.53s37.91-84.52,84.51-84.52,84.53,37.92,84.53,84.52-37.91,84.53-84.53,84.53Z"/>
    <path d="M435.05,218.01c-12.37-57.48-63.57-100.69-124.7-100.69-70.34,0-127.55,57.22-127.55,127.56,0,9.83,1.15,19.4,3.27,28.61l-125.07,51.08V35.62H18.22v304.59c0,10.74,5.31,20.74,14.22,26.76,8.89,6.01,20.15,7.19,30.2,3.14l139.9-57.15c22.65,35.71,62.48,59.48,107.8,59.48,58.38,0,107.63-39.48,122.72-93.12h-45.62c-13.19,29.49-42.7,50.07-77.1,50.07-27.31,0-51.53-13.01-66.97-33.1l191.67-78.28ZM226.79,256.84c-.56-3.92-.95-7.89-.95-11.96,0-46.68,37.83-84.51,84.51-84.51,27.97,0,52.68,13.62,68.05,34.55l-151.61,61.92Z"/>
  </g>
</svg>
