<svg width="480" height="132" viewBox="0 0 480 132" fill="none" xmlns="http://www.w3.org/2000/svg">
<path d="M439.241 111.654C431.731 111.654 424.973 110.012 418.965 106.727C412.958 103.347 408.218 98.607 404.745 92.5057C401.365 86.4044 399.676 79.3644 399.676 71.3857C399.676 63.407 401.412 56.367 404.885 50.2657C408.452 44.1644 413.286 39.471 419.388 36.1857C425.489 32.8065 432.294 31.1169 439.804 31.1169C447.313 31.1169 454.118 32.8065 460.22 36.1857C466.321 39.471 471.108 44.1644 474.581 50.2657C478.148 56.367 479.932 63.407 479.932 71.3857C479.932 79.3644 478.101 86.4044 474.441 92.5057C470.874 98.607 465.993 103.347 459.797 106.727C453.696 110.012 446.844 111.654 439.241 111.654ZM439.241 94.4769C442.808 94.4769 446.14 93.6321 449.237 91.9425C452.429 90.159 454.963 87.5308 456.841 84.0577C458.718 80.5846 459.657 76.3606 459.657 71.3857C459.657 63.9702 457.685 58.2913 453.743 54.3489C449.894 50.3126 445.154 48.2945 439.522 48.2945C433.89 48.2945 429.15 50.3126 425.301 54.3489C421.547 58.2913 419.669 63.9702 419.669 71.3857C419.669 78.8012 421.5 84.527 425.161 88.5633C428.915 92.5057 433.609 94.4769 439.241 94.4769Z" fill="#7437EF"/>
<path d="M382.454 23.0912C378.98 23.0912 376.071 22.0117 373.724 19.8528C371.471 17.6 370.345 14.8309 370.345 11.5456C370.345 8.26027 371.471 5.53813 373.724 3.3792C376.071 1.1264 378.98 0 382.454 0C385.927 0 388.79 1.1264 391.042 3.3792C393.389 5.53813 394.562 8.26027 394.562 11.5456C394.562 14.8309 393.389 17.6 391.042 19.8528C388.79 22.0117 385.927 23.0912 382.454 23.0912ZM391.169 32.384C391.721 32.384 392.169 32.8317 392.169 33.384V109.387C392.169 109.939 391.721 110.387 391.169 110.387H373.457C372.904 110.387 372.457 109.939 372.457 109.387V33.384C372.457 32.8317 372.904 32.384 373.457 32.384H391.169Z" fill="#7437EF"/>
<path d="M359.022 6.19528C359.574 6.19528 360.022 6.643 360.022 7.19528V109.387C360.022 109.94 359.574 110.387 359.022 110.387H341.31C340.757 110.387 340.31 109.94 340.31 109.387V7.19528C340.31 6.643 340.757 6.19528 341.31 6.19528H359.022Z" fill="#7437EF"/>
<path d="M292.199 111.654C284.689 111.654 277.931 110.012 271.923 106.727C265.916 103.347 261.176 98.607 257.703 92.5057C254.323 86.4044 252.634 79.3644 252.634 71.3857C252.634 63.407 254.37 56.367 257.843 50.2657C261.41 44.1644 266.244 39.471 272.346 36.1857C278.447 32.8065 285.252 31.1169 292.762 31.1169C300.271 31.1169 307.076 32.8065 313.178 36.1857C319.279 39.471 324.066 44.1644 327.539 50.2657C331.106 56.367 332.89 63.407 332.89 71.3857C332.89 79.3644 331.059 86.4044 327.399 92.5057C323.832 98.607 318.951 103.347 312.755 106.727C306.654 110.012 299.802 111.654 292.199 111.654ZM292.199 94.4769C295.766 94.4769 299.098 93.6321 302.195 91.9425C305.387 90.159 307.921 87.5308 309.799 84.0577C311.676 80.5846 312.615 76.3606 312.615 71.3857C312.615 63.9702 310.643 58.2913 306.701 54.3489C302.852 50.3126 298.112 48.2945 292.48 48.2945C286.848 48.2945 282.108 50.3126 278.259 54.3489C274.505 58.2913 272.627 63.9702 272.627 71.3857C272.627 78.8012 274.458 84.527 278.119 88.5633C281.873 92.5057 286.567 94.4769 292.199 94.4769Z" fill="#7437EF"/>
<path d="M211.889 89.3408C212.191 90.2569 213.487 90.2569 213.789 89.3408L232.324 33.0712C232.46 32.6611 232.843 32.3841 233.274 32.3841H252.094C252.79 32.3841 253.273 33.078 253.032 33.7311L224.908 109.734C224.762 110.127 224.388 110.387 223.97 110.387H201.427C201.008 110.387 200.634 110.126 200.489 109.733L172.502 33.7296C172.262 33.0768 172.745 32.3841 173.441 32.3841H192.403C192.835 32.3841 193.218 32.6611 193.353 33.0712L211.889 89.3408Z" fill="#7437EF"/>
<path d="M0 5.86206C0 2.78603 2.72251 0.471863 5.72339 1.14771C20.1952 4.40702 57.8588 15.2171 68.5758 41.1795C73 51.8974 73 52.6842 73 52.6842C73 52.6842 73 51.8974 77.4242 41.1795C88.0713 15.3866 125.764 4.47618 140.261 1.16886C143.266 0.483141 146 2.79929 146 5.88217V79.5482C146 84.167 142.851 88.1914 138.42 89.4951C127.246 92.7829 106.346 99.8447 94.0152 109.711C88.1023 114.442 81.195 122.19 76.9596 127.191C74.8919 129.633 71.0731 129.662 68.9714 127.25C64.6168 122.251 57.4868 114.463 51.4318 109.711C39.1266 100.052 18.4887 92.903 7.46831 89.5473C3.0912 88.2145 0 84.2172 0 79.6416V5.86206Z" fill="#7437EF"/>
</svg>
