<svg width="1024" height="924" viewBox="0 0 1024 924" fill="none" xmlns="http://www.w3.org/2000/svg">
<path d="M0 4.97375C0 1.89731 2.55635 -0.467944 5.5838 0.0789176C53.3748 8.71163 393.918 77.1448 480.97 288.303C512 363.572 512 369.097 512 369.097C512 369.097 512 363.572 543.03 288.303C629.525 78.495 970.513 8.90835 1018.4 0.100398C1021.43 -0.45735 1024 1.91057 1024 4.99386V605.174C1024 609.792 1020.97 613.783 1016.5 614.935C974.753 625.695 768.893 681.852 659.394 769.578C602.669 815.022 532.896 900.11 515.877 921.258C513.869 923.753 510.092 923.777 508.048 921.313C490.584 900.261 418.644 815.097 360.727 769.578C251.464 683.703 48.5281 626.08 7.38709 614.995C2.97022 613.805 0 609.842 0 605.268V4.97375Z" fill="#7437EF"/>
</svg>
